PathFileType	4	(X/Y/Z)	C:/Users/beibeiliu/ov580/test_trc/User3\sequence.10_training_dense_right.trc
DataRate	CameraRate	NumFrames	NumMarkers	Units	OrigDataRate	OrigDataStartFrame	OrigNumFrames
120	120	16	19	mm	120	1	155
Frame#	Time	ThumbCMC			ThumbMCP			ThumbIP			ThumbTip			IndexMCP			IndexPIP			IndexTip			MiddleMCP			MiddlePIP			MiddleTip			RingMCP			RingPIP			RingTip			PinkyMCP			PinkyPIP			PinkyTip			BackHand1			BackHand2			BackHand3	
		X0	Y0	Z0	X1	Y1	Z1	X2	Y2	Z2	X3	Y3	Z3	X4	Y4	Z4	X5	Y5	Z5	X6	Y6	Z6	X7	Y7	Z7	X8	Y8	Z8	X9	Y9	Z9	X10	Y10	Z10	X11	Y11	Z11	X12	Y12	Z12	X13	Y13	Z13	X14	Y14	Z14	X15	Y15	Z15	X16	Y16	Z16	X17	Y17	Z17	X18	Y18	Z18	
0	0	108.814	29.0834	-4.15094	84.828	16.4516	-26.1923	72.3707	5.18421	-51.9304	68.7555	-5.83177	-72.3898	114.971	44.2124	-81.1446	106.307	38.1493	-110.6	97.361	31.5814	-130.53	141.796	42.9074	-89.1721	133.814	36.4903	-117.868	130.635	17.749	-146.296	157.665	35.3131	-83.1946	156.463	29.6668	-111.009	155.735	13.2339	-135.931	176.934	21.5353	-70.361	182.313	12.523	-92.7449	184.96	-1.44372	-110.925	163.621	45.8404	-32.8787	167.177	49.8569	-1.97358	133.517	53.401	-14.7373	
1	0.00833333	106.294	29.672	-9.44637	88.8268	16.9695	-25.8538	74.0389	5.8184	-53.9887	65.5522	-6.3128	-70.5914	115.127	44.0019	-81.6032	104.546	40.6433	-110.75	100.853	30.0362	-134.709	138.437	43.2436	-88.502	133.092	34.9037	-122.026	130.285	16.86	-148.543	155.23	36.2091	-85.6905	161.079	29.5482	-108.95	154.295	13.4792	-135.74	176.164	21.3767	-70.0225	182.198	12.2701	-94.3645	179.392	-2.34832	-113.741	163.284	45.4106	-33.3601	167.283	48.8448	-3.05216	132.879	54.7073	-18.5226	
2	0.0166667	106.092	29.1868	-4.6529	89.9108	16.0548	-29.1018	73.4017	5.37333	-53.7799	69.5413	-5.52418	-72.9091	116.273	43.4105	-82.5845	105.227	40.8163	-107.446	102.895	31.1095	-132.394	139.041	42.687	-93.9103	133.887	34.9249	-121.932	131.593	15.3672	-149.823	159.166	34.8893	-84.8299	158.182	29.5115	-108.856	156.426	12.1803	-134.398	177.122	22.2053	-71.6452	182.922	12.0004	-91.8155	181.841	-0.501584	-111.014	164.743	45.0621	-34.7525	170.682	48.7239	-6.21332	135.583	54.3384	-17.564	
3	0.025	105.73	29.2776	-7.95408	88.4354	16.2027	-26.8937	75.3282	5.40241	-55.8615	68.7472	-6.80078	-74.4543	115.431	43.5796	-80.9291	106.047	38.7938	-111.838	105.018	29.6286	-134.343	144.276	42.0072	-92.1903	138.924	33.36	-123.147	135.349	14.9971	-148.074	158.783	35.8548	-86.4169	160.452	27.9686	-113.021	156.451	11.3907	-134.806	178.126	21.8155	-70.3178	183.237	13.0547	-89.9791	183.642	-3.43543	-113.966	163.14	47.1786	-34.8243	169.843	46.9562	-3.43583	132.379	53.7746	-21.1269	
4	0.0333333	105.67	30.2007	-9.31484	90.7044	16.2269	-28.1573	76.3288	5.25581	-54.5701	71.3941	-7.31628	-75.1951	117.857	43.9564	-84.8443	107.399	40.6872	-109.158	106.412	29.3247	-133.48	141.032	43.4251	-88.5257	137.932	33.6691	-122.738	133.691	17.2875	-147.107	159.492	34.5577	-81.4846	158.473	28.0814	-113.177	157.52	11.4744	-136.615	180.66	20.8894	-67.6865	184.416	12.0364	-94.4741	184.427	-4.35612	-113.309	164.863	46.3999	-31.6487	173.868	48.7365	-3.77408	138.868	53.1621	-17.671	
5	0.0416667	107.251	28.6654	-10.3621	93.8016	14.996	-28.8991	79.773	3.75105	-50.4976	73.4615	-7.76535	-71.7979	115.867	42.7144	-82.9639	112.182	38.0229	-111.628	101.091	28.5785	-135.683	144.266	42.1621	-88.8807	141.581	34.7236	-119.859	134.176	17.4749	-145.54	159.105	34.7352	-84.8513	162.848	28.5655	-110.454	157.047	13.088	-132.646	182.982	20.3763	-71.1151	184.286	13.4313	-91.0538	187.35	-4.87712	-114.931	169.568	44.2931	-34.5834	171.58	47.4613	-6.37949	139.026	52.446	-21.5665	
6	0.05	109.737	27.2459	-9.25452	90.3356	14.9733	-27.2218	75.2563	3.37249	-53.0027	70.0133	-9.25435	-71.4234	117.379	41.6105	-83.0903	107.344	37.5958	-111.137	107.104	27.207	-134.603	141.682	42.2719	-89.6192	139.405	33.9237	-119.355	135.057	15.2535	-146.687	163.428	34.0492	-84.5931	164.057	27.4915	-110.1	160.999	12.2364	-132.791	180.539	20.4571	-67.8894	187.915	9.94114	-92.2349	187.334	-6.21457	-114.028	166.338	45.8198	-31.2426	169.279	47.4105	-3.56916	136.647	51.6511	-20.3789	
7	0.0583333	108.224	26.6688	-4.40209	90.3864	14.3816	-27.2299	76.3592	3.09448	-51.7357	70.2172	-8.72923	-73.2579	115.245	42.0483	-82.7245	110.24	35.4526	-112.479	104.49	25.7972	-136.501	143.343	40.0719	-91.0059	139.412	32.0191	-120.076	137.78	12.1953	-149.716	163.548	32.3313	-84.7612	164.611	26.0021	-110.588	158.232	13.076	-132.417	180.686	20.2004	-65.9728	185.444	12.343	-88.6402	189.3	-3.90565	-111.952	165.165	46.3124	-35.0398	169.665	47.7331	-1.25111	134.121	52.3098	-16.793	
8	0.0666667	110.558	26.1248	-9.54379	90.3928	13.7111	-26.8374	78.5372	2.98969	-50.1389	70.5962	-9.38377	-70.8393	117.183	40.7647	-84.0326	109.194	36.7892	-111.006	106.474	27.1012	-132.355	144.031	40.1559	-89.7056	139.99	30.5628	-121.911	135.292	15.8776	-144.555	160.508	33.0797	-80.5662	161.428	26.9094	-107.609	159.294	10.6369	-134.87	181.873	19.7813	-67.8517	183.696	10.8184	-91.0425	189.747	-4.75665	-108.688	169.494	45.1448	-33.581	172.695	46.1129	-4.45235	137.655	50.4857	-16.101	
9	0.075	108.415	26.8986	-4.80312	90.4688	12.4738	-27.8472	77.7219	2.33401	-50.7596	71.4929	-9.48601	-73.5758	119.285	41.4227	-84.161	108.051	37.1985	-107.523	105.22	24.5685	-134.415	140.481	41.6986	-92.2775	139.123	31.2945	-121.783	133.81	16.2623	-145.613	161.361	33.3883	-81.0913	160.151	27.2549	-107.909	157.554	10.8926	-133	183.705	19.564	-68.6194	184.455	11.0413	-91.1727	184.441	-2.50628	-111.432	164.209	43.7918	-30.8693	172.262	45.4307	-5.57763	139.638	52.0977	-15.5313	
10	0.0833333	111.451	26.4422	-7.77446	89.1994	12.9545	-29.8519	76.3505	0.630349	-52.8896	75.1265	-10.7528	-75.563	117.556	42.565	-79.6652	107.671	36.3237	-110.808	108.377	25.8198	-132.02	142.806	41.175	-90.8897	141.447	33.3132	-118.279	134.787	13.237	-144.229	162.604	33.7482	-84.579	161.243	26.5132	-109.075	156.831	7.10741	-131.298	183.609	18.8513	-69.1237	182.635	10.6048	-91.5435	180.863	-7.21696	-113.473	165.236	44.1533	-28.6719	172.036	46.6336	-0.957387	138.87	49.5447	-14.2613	
11	0.0916667	110.606	24.4563	-2.31158	94.9707	12.5209	-27.4409	79.3048	0.78894	-56.2976	76.369	-11.1232	-78.1053	115.899	42.7011	-80.6826	110.211	36.5741	-109.284	105.378	22.6165	-132.198	140.017	42.2598	-86.177	138.032	31.7548	-118.762	128.551	7.54279	-140.677	161.625	34.1217	-82.7783	160.968	23.3379	-108.262	151.477	-2.93345	-125.845	177.767	20.032	-71.9127	180.358	6.98491	-94.3641	176.115	-13.7758	-108.632	167.644	43.2587	-32.7107	171.927	43.8358	-1.29688	135.372	49.569	-16.4214	
12	0.1	108.843	24.6205	-1.85347	94.7952	11.9041	-27.0837	82.1327	0.805432	-50.9145	79.3376	-9.7152	-74.0827	115.91	44.6963	-81.0299	110.968	36.6332	-107.38	102.778	24.1801	-126.199	139.183	42.6032	-89.4596	137.346	24.4195	-117.405	127.819	-5.96486	-127.019	159.638	32.7763	-82.6583	158.852	14.601	-107.989	144.48	-12.9065	-112.109	179.184	18.6409	-70.6252	174.822	4.58839	-91.8643	163.858	-19.8496	-99.5936	167.118	44.2751	-29.5225	172.442	41.162	-0.520308	137.642	51.0563	-10.7362	
13	0.108333	113.203	25.6491	-3.98899	94.8342	12.1359	-27.3302	85.2446	2.85065	-52.7705	82.0621	-9.12064	-73.125	120.281	45.0556	-76.8585	112.665	38.9749	-106.008	103.333	22.5212	-129.274	143.772	40.1072	-84.9656	134.956	20.3035	-111.588	124.891	-18.5182	-103.406	160.774	28.9694	-83.4739	150.231	9.85971	-101.629	142.272	-18.6375	-91.5307	178.867	16.7863	-67.073	169.5	-2.57943	-88.8444	155.274	-22.4472	-85.3607	167.4	43.2228	-25.4992	173.359	41.5696	-0.550958	137.985	52.4134	-9.20469	
14	0.116667	111.197	27.2665	-3.6389	91.9107	13.2223	-25.7748	85.5925	3.57682	-53.5809	87.1675	-8.11303	-79.9899	117.65	49.4359	-79.6609	112.247	41.0443	-107.229	102.835	29.1628	-127.026	137.016	37.6597	-86.2789	131.788	12.6292	-105.726	122.23	-18.357	-80.5312	158.898	24.8332	-82.0044	147.178	-2.74912	-94.0147	136.128	-19.0931	-67.3684	174.368	15.5867	-67.7958	167.433	-6.60919	-84.9784	148.503	-26.3755	-66.6085	170.276	43.3382	-27.6784	171.946	43.5002	1.68047	138.336	52.1901	-12.7065	
15	0.125	108.794	28.4161	-4.40209	93.9569	12.9074	-28.0197	86.2778	1.85697	-55.1531	93.435	-9.65643	-77.6625	116.827	51.3066	-78.4781	109.845	45.6269	-107.028	103.124	36.7531	-128.852	134.898	31.3453	-88.127	122.821	1.76598	-96.5122	119.582	-15.5416	-64.0591	150.737	20.4617	-81.7511	146.887	-8.77703	-86.3412	137.263	-16.7652	-52.2002	171.678	12.589	-69.7879	160.554	-12.0208	-78.0638	146.807	-22.3769	-52.02	171.065	44.8339	-27.8835	175.01	43.6164	-1.46492	138.38	52.2759	-9.6055	
